<svg width="16" height="16" viewBox="0 0 16 16" fill="none" xmlns="http://www.w3.org/2000/svg">
<path d="M9.4082 6.34863C9.56993 6.33342 9.71778 6.44552 9.76074 6.5957L9.78027 6.66602L9.77441 6.66895C9.77474 6.67054 9.77505 6.67216 9.77539 6.67383C9.78362 6.71463 9.79499 6.77258 9.80664 6.84375C9.82993 6.98601 9.85515 7.18375 9.8623 7.41699C9.87656 7.88293 9.81961 8.49602 9.53027 9.09863L9.5293 9.10059C9.20132 9.75563 8.56414 10.4928 8.32617 10.7529C8.33403 10.8847 8.3446 10.9926 8.35352 11.0693C8.35837 11.1111 8.36211 11.1441 8.36523 11.166C8.3668 11.177 8.3683 11.1859 8.36914 11.1914C8.36931 11.1925 8.36901 11.1935 8.36914 11.1943C8.41434 11.3839 8.27447 11.5627 8.09277 11.5859L8.08008 11.5879V11.5869H8.03223C7.88459 11.5869 7.72712 11.4852 7.69629 11.3223C7.6929 11.3124 7.68905 11.3035 7.6875 11.2969C7.68445 11.2838 7.68162 11.2674 7.67871 11.25C7.67288 11.2151 7.66721 11.1691 7.66113 11.1143C7.64931 11.0075 7.63709 10.8635 7.62891 10.6934C7.62246 10.6777 7.61232 10.6552 7.59668 10.624C7.58179 10.5943 7.56467 10.5585 7.54883 10.5215C7.2971 10.2765 6.91401 9.8635 6.61328 9.3584C6.3078 8.84513 6.0801 8.22503 6.17285 7.58496C6.17888 7.44813 6.2674 7.34601 6.37988 7.30664L6.43164 7.29297C6.97715 7.15854 7.39006 7.30923 7.6543 7.47754C7.99876 6.98428 8.40582 6.7028 8.74121 6.54492C8.91785 6.4618 9.07432 6.41217 9.19043 6.38379C9.2874 6.3601 9.36062 6.35203 9.39453 6.34961V6.34863C9.39711 6.34828 9.39978 6.34892 9.40234 6.34863C9.40456 6.34854 9.40653 6.34766 9.4082 6.34766V6.34863ZM9.13867 7.12305C8.97908 7.18251 8.77842 7.2854 8.57324 7.45801C8.68621 7.39534 8.82745 7.40711 8.93848 7.48633C9.1 7.60183 9.11833 7.81002 9.00977 7.96191V7.96289C8.6303 8.48172 8.44592 9.07551 8.35645 9.61035C8.5618 9.34449 8.7669 9.04431 8.90332 8.77148C9.20902 8.15958 9.19986 7.49432 9.13867 7.12305ZM8.4707 7.54785C8.30822 7.70383 8.14755 7.90739 8.00879 8.17383C7.91446 8.37104 7.86213 8.57596 7.8418 8.78027C7.97593 8.36675 8.17291 7.94501 8.46289 7.55762C8.46533 7.55421 8.46818 7.55113 8.4707 7.54785ZM6.82324 7.93555C6.82658 8.03676 6.83759 8.13829 6.85938 8.23926C6.88125 8.17812 6.92154 8.12166 6.98242 8.07812L6.99121 8.07227C7.06157 8.03213 7.14417 8.01566 7.22363 8.02539C7.12212 7.9744 6.98938 7.93555 6.82324 7.93555Z" fill="#213F7D" stroke="#213F7D" stroke-width="0.2"/>
<path d="M4.80078 5.41992C4.98403 5.42006 5.14062 5.57649 5.14062 5.75977V11.8398C5.14045 12.023 4.98393 12.1796 4.80078 12.1797C4.61753 12.1797 4.46112 12.0231 4.46094 11.8398V5.75977C4.46094 5.57641 4.61743 5.41992 4.80078 5.41992Z" fill="#213F7D" stroke="#213F7D" stroke-width="0.2"/>
<path d="M3.20117 5.41992C3.38442 5.42006 3.54102 5.57649 3.54102 5.75977V11.8398C3.54084 12.023 3.38432 12.1796 3.20117 12.1797C3.01792 12.1797 2.86151 12.0231 2.86133 11.8398V5.75977C2.86133 5.57641 3.01782 5.41992 3.20117 5.41992Z" fill="#213F7D" stroke="#213F7D" stroke-width="0.2"/>
<path d="M11.2012 5.41992C11.3844 5.42006 11.541 5.57649 11.541 5.75977V11.8398C11.5408 12.023 11.3843 12.1796 11.2012 12.1797C11.0179 12.1797 10.8615 12.0231 10.8613 11.8398V5.75977C10.8613 5.57641 11.0178 5.41992 11.2012 5.41992Z" fill="#213F7D" stroke="#213F7D" stroke-width="0.2"/>
<path d="M12.8008 5.41992C12.984 5.42006 13.1406 5.57649 13.1406 5.75977V11.8398C13.1404 12.023 12.9839 12.1796 12.8008 12.1797C12.6175 12.1797 12.4611 12.0231 12.4609 11.8398V5.75977C12.4609 5.57641 12.6174 5.41992 12.8008 5.41992Z" fill="#213F7D" stroke="#213F7D" stroke-width="0.2"/>
<path d="M7.83789 1.46582C7.94493 1.40143 8.08577 1.395 8.18848 1.47168L13.5225 4.64844C13.637 4.70062 13.7177 4.83036 13.7178 4.95898V4.97168L13.7158 4.9707C13.7022 5.08271 13.6341 5.18712 13.5371 5.24707L13.584 5.2998H2.6416C2.48618 5.29974 2.34382 5.18949 2.31934 5.04004L2.32031 5.03906C2.28074 4.8817 2.35398 4.74939 2.47461 4.66895L2.47852 4.66602L7.83789 1.4668V1.46582ZM3.86719 4.62012H12.1211L8.00098 2.14746L3.86719 4.62012Z" fill="#213F7D" stroke="#213F7D" stroke-width="0.2"/>
<path d="M13.3604 12.3008C13.5437 12.3008 13.7002 12.4573 13.7002 12.6406C13.7001 12.8239 13.5436 12.9805 13.3604 12.9805H2.64062C2.45735 12.9805 2.30091 12.8239 2.30078 12.6406C2.30078 12.4573 2.45727 12.3008 2.64062 12.3008H13.3604Z" fill="#213F7D" stroke="#213F7D" stroke-width="0.2"/>
<path d="M14.1611 13.0996C14.3445 13.0996 14.502 13.2561 14.502 13.4395C14.5018 13.6227 14.3444 13.7793 14.1611 13.7793H1.8418C1.65852 13.7793 1.50209 13.6227 1.50195 13.4395C1.50195 13.2561 1.65844 13.0996 1.8418 13.0996H14.1611Z" fill="#213F7D" stroke="#213F7D" stroke-width="0.2"/>
<path d="M14.9609 13.9004C15.1442 13.9005 15.3008 14.0569 15.3008 14.2402C15.3006 14.4234 15.1441 14.58 14.9609 14.5801H1.04102C0.857741 14.5801 0.701306 14.4235 0.701172 14.2402C0.701172 14.0569 0.857662 13.9004 1.04102 13.9004H14.9609Z" fill="#213F7D" stroke="#213F7D" stroke-width="0.2"/>
</svg>
