<svg width="26" height="26" viewBox="0 0 26 26" fill="none" xmlns="http://www.w3.org/2000/svg">
<path d="M12.998 1.53223C13.8904 1.53237 14.6954 2.06408 15.0479 2.88379C15.3564 3.60277 15.2627 4.4224 14.8193 5.0498C16.1879 5.45495 17.3976 6.28079 18.2744 7.41406C19.2146 8.62923 19.7165 10.1259 19.6992 11.6621V13.5967L19.7119 14.1309C19.8384 16.7965 20.9556 19.3259 22.8574 21.2168C23.0318 21.3897 23.0852 21.6525 22.9912 21.8799L22.9902 21.8809C22.8955 22.106 22.6758 22.2539 22.4287 22.2529V22.2539H15.9746C15.6795 23.6535 14.4451 24.6688 13 24.6689C11.5548 24.6689 10.3207 23.6536 10.0254 22.2539H3.57031V22.2529C3.32329 22.2538 3.10351 22.106 3.00879 21.8809L3.00781 21.8799C2.91383 21.6525 2.96718 21.3897 3.1416 21.2168C5.17012 19.2001 6.30671 16.4568 6.2998 13.5967V11.4912C6.29988 9.97863 6.81186 8.51113 7.75293 7.32715C8.62737 6.22492 9.82463 5.42808 11.1729 5.0459C10.732 4.41905 10.6395 3.6012 10.9473 2.88379C11.2997 2.06397 12.1055 1.53223 12.998 1.53223ZM11.2725 22.2539C11.5263 22.9786 12.2127 23.4773 12.999 23.4775C13.7856 23.4775 14.4726 22.9787 14.7266 22.2539H11.2725ZM13.2637 6.00293C11.7632 5.93106 10.299 6.47657 9.21191 7.51367C8.12429 8.55015 7.50977 9.98801 7.51172 11.4912V13.5957L7.50195 14.1289C7.39726 16.6474 6.49196 19.0671 4.92188 21.041H21.0762C19.3958 18.9282 18.4786 16.3041 18.4873 13.5957V11.6592C18.5118 10.225 17.9832 8.83711 17.0098 7.7832C16.0373 6.73034 14.6948 6.09224 13.2637 6.00391V6.00293ZM13 2.75391C12.4372 2.75391 11.9806 3.20968 11.9805 3.77246C11.9805 4.18423 12.2292 4.55595 12.6104 4.71387C12.9431 4.85114 13.3198 4.80226 13.6045 4.59277L13.7207 4.49316C14.0116 4.201 14.0984 3.76304 13.9414 3.38281C13.7835 3.00181 13.4116 2.75406 13 2.75391Z" fill="#213F7D" stroke="#213F7D" stroke-width="0.4"/>
</svg>
