<svg width="16" height="22" viewBox="0 0 16 22" fill="none" xmlns="http://www.w3.org/2000/svg">
<g clip-path="url(#clip0_1531_8481)">
<path opacity="0.4" d="M14 2.66602H10.6667C11.3739 2.66602 12.0522 2.94697 12.5523 3.44706C13.0524 3.94716 13.3333 4.62544 13.3333 5.33268H2.66667C2.66667 4.62544 2.94762 3.94716 3.44772 3.44706C3.94781 2.94697 4.62609 2.66602 5.33333 2.66602H2C1.46957 2.66602 0.960859 2.87673 0.585786 3.2518C0.210714 3.62687 0 4.13558 0 4.66602L0 19.3327C0 19.8631 0.210714 20.3718 0.585786 20.7469C0.960859 21.122 1.46957 21.3327 2 21.3327H14C14.5304 21.3327 15.0391 21.122 15.4142 20.7469C15.7893 20.3718 16 19.8631 16 19.3327V4.66602C16 4.13558 15.7893 3.62687 15.4142 3.2518C15.0391 2.87673 14.5304 2.66602 14 2.66602V2.66602ZM4 17.666C3.80222 17.666 3.60888 17.6074 3.44443 17.4975C3.27998 17.3876 3.15181 17.2314 3.07612 17.0487C3.00043 16.866 2.98063 16.6649 3.01921 16.4709C3.0578 16.2769 3.15304 16.0988 3.29289 15.9589C3.43275 15.8191 3.61093 15.7238 3.80491 15.6852C3.99889 15.6466 4.19996 15.6664 4.38268 15.7421C4.56541 15.8178 4.72159 15.946 4.83147 16.1104C4.94135 16.2749 5 16.4682 5 16.666C5.00033 16.7974 4.97469 16.9276 4.92455 17.0491C4.87441 17.1706 4.80077 17.2809 4.70784 17.3739C4.61492 17.4668 4.50455 17.5404 4.38307 17.5906C4.2616 17.6407 4.13141 17.6663 4 17.666V17.666ZM4 13.666C3.80222 13.666 3.60888 13.6074 3.44443 13.4975C3.27998 13.3876 3.15181 13.2314 3.07612 13.0487C3.00043 12.866 2.98063 12.6649 3.01921 12.4709C3.0578 12.2769 3.15304 12.0988 3.29289 11.9589C3.43275 11.8191 3.61093 11.7238 3.80491 11.6852C3.99889 11.6466 4.19996 11.6664 4.38268 11.7421C4.56541 11.8178 4.72159 11.946 4.83147 12.1104C4.94135 12.2749 5 12.4682 5 12.666C5.00033 12.7974 4.97469 12.9276 4.92455 13.0491C4.87441 13.1706 4.80077 13.2809 4.70784 13.3739C4.61492 13.4668 4.50455 13.5404 4.38307 13.5906C4.2616 13.6407 4.13141 13.6663 4 13.666V13.666ZM4 9.66602C3.80222 9.66602 3.60888 9.60737 3.44443 9.49749C3.27998 9.3876 3.15181 9.23143 3.07612 9.0487C3.00043 8.86597 2.98063 8.66491 3.01921 8.47093C3.0578 8.27694 3.15304 8.09876 3.29289 7.95891C3.43275 7.81906 3.61093 7.72382 3.80491 7.68523C3.99889 7.64665 4.19996 7.66645 4.38268 7.74214C4.56541 7.81782 4.72159 7.946 4.83147 8.11045C4.94135 8.27489 5 8.46823 5 8.66602C5.00033 8.79743 4.97469 8.92761 4.92455 9.04909C4.87441 9.17056 4.80077 9.28093 4.70784 9.37386C4.61492 9.46678 4.50455 9.54043 4.38307 9.59057C4.2616 9.6407 4.13141 9.66635 4 9.66602V9.66602ZM13.3333 16.9993C13.3333 17.0878 13.2982 17.1725 13.2357 17.2351C13.1732 17.2976 13.0884 17.3327 13 17.3327H7C6.91159 17.3327 6.82681 17.2976 6.7643 17.2351C6.70179 17.1725 6.66667 17.0878 6.66667 16.9993V16.3327C6.66667 16.2443 6.70179 16.1595 6.7643 16.097C6.82681 16.0345 6.91159 15.9993 7 15.9993H13C13.0884 15.9993 13.1732 16.0345 13.2357 16.097C13.2982 16.1595 13.3333 16.2443 13.3333 16.3327V16.9993ZM13.3333 12.9993C13.3333 13.0878 13.2982 13.1725 13.2357 13.2351C13.1732 13.2976 13.0884 13.3327 13 13.3327H7C6.91159 13.3327 6.82681 13.2976 6.7643 13.2351C6.70179 13.1725 6.66667 13.0878 6.66667 12.9993V12.3327C6.66667 12.2443 6.70179 12.1595 6.7643 12.097C6.82681 12.0345 6.91159 11.9993 7 11.9993H13C13.0884 11.9993 13.1732 12.0345 13.2357 12.097C13.2982 12.1595 13.3333 12.2443 13.3333 12.3327V12.9993ZM13.3333 8.99935C13.3333 9.08775 13.2982 9.17254 13.2357 9.23505C13.1732 9.29756 13.0884 9.33268 13 9.33268H7C6.91159 9.33268 6.82681 9.29756 6.7643 9.23505C6.70179 9.17254 6.66667 9.08775 6.66667 8.99935V8.33268C6.66667 8.24428 6.70179 8.15949 6.7643 8.09698C6.82681 8.03447 6.91159 7.99935 7 7.99935H13C13.0884 7.99935 13.1732 8.03447 13.2357 8.09698C13.2982 8.15949 13.3333 8.24428 13.3333 8.33268V8.99935Z" fill="#213F7D"/>
<path d="M3.99935 15.6667C3.80157 15.6667 3.60823 15.7253 3.44378 15.8352C3.27933 15.9451 3.15116 16.1013 3.07547 16.284C2.99978 16.4667 2.97998 16.6678 3.01856 16.8618C3.05715 17.0557 3.15239 17.2339 3.29224 17.3738C3.43209 17.5136 3.61028 17.6089 3.80426 17.6475C3.99824 17.686 4.19931 17.6662 4.38203 17.5905C4.56476 17.5149 4.72094 17.3867 4.83082 17.2222C4.9407 17.0578 4.99935 16.8644 4.99935 16.6667C4.99968 16.5353 4.97404 16.4051 4.9239 16.2836C4.87376 16.1621 4.80012 16.0517 4.70719 15.9588C4.61427 15.8659 4.5039 15.7923 4.38242 15.7421C4.26095 15.692 4.13076 15.6663 3.99935 15.6667V15.6667ZM3.99935 11.6667C3.80157 11.6667 3.60823 11.7253 3.44378 11.8352C3.27933 11.9451 3.15116 12.1013 3.07547 12.284C2.99978 12.4667 2.97998 12.6678 3.01856 12.8618C3.05715 13.0557 3.15239 13.2339 3.29224 13.3738C3.43209 13.5136 3.61028 13.6089 3.80426 13.6475C3.99824 13.686 4.19931 13.6662 4.38203 13.5905C4.56476 13.5149 4.72094 13.3867 4.83082 13.2222C4.9407 13.0578 4.99935 12.8644 4.99935 12.6667C4.99968 12.5353 4.97404 12.4051 4.9239 12.2836C4.87376 12.1621 4.80012 12.0517 4.70719 11.9588C4.61427 11.8659 4.5039 11.7923 4.38242 11.7421C4.26095 11.692 4.13076 11.6663 3.99935 11.6667V11.6667ZM3.99935 7.66667C3.80157 7.66667 3.60823 7.72532 3.44378 7.8352C3.27933 7.94508 3.15116 8.10126 3.07547 8.28398C2.99978 8.46671 2.97998 8.66778 3.01856 8.86176C3.05715 9.05574 3.15239 9.23392 3.29224 9.37377C3.43209 9.51363 3.61028 9.60887 3.80426 9.64745C3.99824 9.68604 4.19931 9.66623 4.38203 9.59055C4.56476 9.51486 4.72094 9.38669 4.83082 9.22224C4.9407 9.05779 4.99935 8.86445 4.99935 8.66667C4.99968 8.53525 4.97404 8.40507 4.9239 8.28359C4.87376 8.16212 4.80012 8.05175 4.70719 7.95883C4.61427 7.8659 4.5039 7.79225 4.38242 7.74212C4.26095 7.69198 4.13076 7.66634 3.99935 7.66667V7.66667ZM10.666 2.66667C10.666 1.95942 10.3851 1.28115 9.88497 0.781049C9.38487 0.280952 8.70659 0 7.99935 0C7.2921 0 6.61383 0.280952 6.11373 0.781049C5.61363 1.28115 5.33268 1.95942 5.33268 2.66667C4.62544 2.66667 3.94716 2.94762 3.44706 3.44772C2.94697 3.94781 2.66602 4.62609 2.66602 5.33333H13.3327C13.3327 4.62609 13.0517 3.94781 12.5516 3.44772C12.0515 2.94762 11.3733 2.66667 10.666 2.66667ZM7.99935 3.66667C7.80157 3.66667 7.60823 3.60802 7.44378 3.49814C7.27933 3.38825 7.15116 3.23208 7.07547 3.04935C6.99978 2.86662 6.97998 2.66556 7.01856 2.47158C7.05715 2.2776 7.15239 2.09941 7.29224 1.95956C7.43209 1.81971 7.61028 1.72447 7.80426 1.68588C7.99824 1.6473 8.19931 1.6671 8.38203 1.74279C8.56476 1.81847 8.72094 1.94665 8.83082 2.1111C8.9407 2.27555 8.99935 2.46889 8.99935 2.66667C8.99968 2.79808 8.97404 2.92827 8.9239 3.04974C8.87376 3.17121 8.80011 3.28158 8.70719 3.37451C8.61427 3.46743 8.5039 3.54108 8.38242 3.59122C8.26095 3.64136 8.13076 3.667 7.99935 3.66667V3.66667Z" fill="#213F7D"/>
</g>
<defs>
<clipPath id="clip0_1531_8481">
<rect width="16" height="21.3333" fill="white"/>
</clipPath>
</defs>
</svg>
