<svg width="16" height="16" viewBox="0 0 16 16" fill="none" xmlns="http://www.w3.org/2000/svg">
<g clip-path="url(#clip0_1531_8520)">
<path opacity="0.4" d="M4.76203 11.8756C4.26994 11.7735 3.79335 11.6073 3.34444 11.3813C2.56215 11.4973 1.76312 11.4044 1.0283 11.112C0.608135 10.9436 0.238753 11.4457 0.525128 11.7962C0.959249 12.3255 1.47877 12.7784 2.06223 13.1363C3.57283 14.0697 5.44623 14.243 7.0993 13.6821C7.54257 13.091 7.83253 12.3993 7.94328 11.6688C6.92019 12.0197 5.82195 12.0911 4.76203 11.8756V11.8756ZM4.32978 7.94346C3.9788 6.92035 3.90741 5.82206 4.123 4.76212C4.22509 4.27006 4.39122 3.79349 4.61714 3.34458C4.5013 2.56227 4.5942 1.76324 4.88642 1.02836C5.05488 0.608319 4.55268 0.238752 4.20222 0.525068C3.67298 0.959158 3.22008 1.47872 2.86227 2.06224C1.92893 3.57292 1.75559 5.44627 2.31637 7.09934C2.90752 7.54263 3.59925 7.83263 4.32978 7.94346V7.94346ZM11.6686 8.05515C12.0196 9.07826 12.091 10.1765 11.8754 11.2365C11.7733 11.7285 11.6072 12.2051 11.3812 12.654C11.4971 13.4363 11.4042 14.2354 11.112 14.9702C10.9435 15.3903 11.4457 15.7599 11.7962 15.4735C12.3254 15.0394 12.7783 14.5199 13.1361 13.9364C14.0695 12.4257 14.2428 10.5523 13.682 8.89927C13.0909 8.45598 12.3991 8.16597 11.6686 8.05515V8.05515ZM15.4733 4.20237C15.0392 3.67312 14.5196 3.22016 13.9362 2.86222C12.4255 1.92894 10.5521 1.75566 8.89909 2.31645C8.4558 2.90757 8.16584 3.59929 8.0551 4.32981C9.07819 3.97888 10.1764 3.90749 11.2363 4.12303C11.7284 4.22514 12.205 4.39129 12.6539 4.61723C13.4362 4.50128 14.2353 4.59418 14.9701 4.88651C15.3902 5.05497 15.7596 4.55283 15.4733 4.20237Z" fill="#213F7D"/>
<path d="M15.8301 8.56534C15.3052 6.3433 13.4758 4.57041 11.2368 4.12333C10.1769 3.90779 9.07861 3.97918 8.05552 4.33011C8.16925 3.5734 8.47442 2.85829 8.94209 2.25262C9.40975 1.64696 10.0244 1.17081 10.7277 0.869362C11.1439 0.691383 11.0501 0.0750498 10.5998 0.0297017C9.91861 -0.0375299 9.23095 0.00956678 8.56528 0.169045C6.34337 0.693947 4.57044 2.52341 4.12342 4.76242C3.90783 5.82236 3.97922 6.92065 4.3302 7.94376C3.57349 7.83 2.85838 7.52481 2.25271 7.05713C1.64703 6.58945 1.17088 5.97479 0.869417 5.27146C0.69144 4.85538 0.0751104 4.94907 0.029702 5.39939C-0.0375385 6.08058 0.00957863 6.76822 0.169105 7.43387C0.694003 9.65592 2.52346 11.4288 4.76245 11.8759C5.82237 12.0914 6.92061 12.02 7.9437 11.6691C7.82998 12.4258 7.5248 13.1409 7.05713 13.7466C6.58947 14.3523 5.97481 14.8284 5.27148 15.1298C4.85535 15.3078 4.9491 15.9242 5.39941 15.9695C6.08062 16.0367 6.76827 15.9896 7.43394 15.8302C9.65585 15.3053 11.4288 13.4758 11.8758 11.2368C12.0914 10.1768 12.02 9.07856 11.669 8.05545C12.4257 8.16921 13.1408 8.4744 13.7465 8.94208C14.3522 9.40976 14.8283 10.0244 15.1298 10.7278C15.3078 11.1438 15.9241 11.0501 15.9695 10.5998C16.0368 9.91863 15.9896 9.23099 15.8301 8.56534V8.56534ZM7.99961 9.4996C7.70294 9.49961 7.41293 9.41164 7.16625 9.24682C6.91958 9.08199 6.72732 8.84773 6.61378 8.57364C6.50025 8.29955 6.47054 7.99795 6.52842 7.70698C6.5863 7.41601 6.72916 7.14873 6.93893 6.93895C7.14871 6.72917 7.41599 6.58631 7.70696 6.52843C7.99793 6.47055 8.29953 6.50026 8.57362 6.61379C8.84771 6.72732 9.08198 6.91958 9.2468 7.16625C9.41162 7.41292 9.4996 7.70293 9.4996 7.99961C9.49959 8.39743 9.34155 8.77895 9.06025 9.06025C8.77895 9.34155 8.39743 9.49959 7.99961 9.4996Z" fill="#213F7D"/>
</g>
<defs>
<clipPath id="clip0_1531_8520">
<rect width="16" height="16" fill="white"/>
</clipPath>
</defs>
</svg>
