<svg width="19" height="16" viewBox="0 0 19 16" fill="none" xmlns="http://www.w3.org/2000/svg">
<path d="M15.4138 3.79742L14.0006 2.3843C13.6879 2.07431 13.2653 1.90039 12.825 1.90039H6.09187C5.6525 1.90039 5.22797 2.07555 4.91625 2.3843L3.50312 3.79742H0V11.3885H1.9C2.4225 11.3885 2.84406 10.967 2.84703 10.4474H3.11719L5.62875 12.7155C6.54609 13.4607 7.81969 13.4785 8.76375 12.8284C9.13484 13.149 9.53562 13.3004 9.98391 13.3004C10.5242 13.3004 11.0319 13.0807 11.4327 12.5879C12.0888 12.8462 12.8636 12.6651 13.3327 12.0891L14.1105 11.1302C14.2767 10.9254 14.3806 10.6909 14.4341 10.4474H16.153C16.1559 10.967 16.5805 11.3885 17.1 11.3885H19V3.79742H15.4138ZM1.425 10.4385C1.16375 10.4385 0.95 10.2248 0.95 9.96352C0.95 9.70227 1.16375 9.48852 1.425 9.48852C1.68625 9.48852 1.9 9.70227 1.9 9.96352C1.9 10.2277 1.68625 10.4385 1.425 10.4385ZM13.0031 10.2337L12.2283 11.1896C12.1452 11.2905 11.9967 11.3084 11.8928 11.2252L11.1833 10.6493L10.2927 11.7329C10.1145 11.9496 9.84734 11.8754 9.75828 11.8041L8.66578 10.869L8.20266 11.439C7.79 11.9466 7.03891 12.0238 6.56094 11.6349L3.67234 9.02242H2.85V5.21945H4.09391L5.92563 3.3907C5.985 3.36695 6.03547 3.34617 6.09484 3.32242H7.77812L6.62922 4.37633C5.75641 5.17492 5.70594 6.52273 6.49859 7.38367C6.93797 7.86461 8.31547 8.6068 9.51187 7.5143L9.75531 7.29164L12.9675 9.8982C13.0684 9.98133 13.0833 10.1327 13.0031 10.2337V10.2337ZM16.15 9.02242H14.0956C14.0273 8.9393 13.9502 8.86211 13.867 8.79383L10.8181 6.31789L11.1892 5.97945C11.3822 5.80133 11.397 5.50148 11.2189 5.30852L10.8953 4.96117C10.7172 4.7682 10.4173 4.75633 10.2244 4.93148L8.58563 6.43367C8.30359 6.69195 7.82266 6.71273 7.55844 6.43367C7.28234 6.13977 7.30609 5.68852 7.59406 5.42727L9.54156 3.64305C9.76125 3.44117 10.0462 3.33133 10.3431 3.33133L12.828 3.32539C12.8903 3.32539 12.9497 3.34914 12.9913 3.39367L14.823 5.22242H16.15V9.02242V9.02242ZM17.575 10.4385C17.3137 10.4385 17.1 10.2248 17.1 9.96352C17.1 9.70227 17.3137 9.48852 17.575 9.48852C17.8362 9.48852 18.05 9.70227 18.05 9.96352C18.05 10.2277 17.8362 10.4385 17.575 10.4385Z" fill="#213F7D"/>
</svg>
