<svg width="16" height="15" viewBox="0 0 16 15" fill="none" xmlns="http://www.w3.org/2000/svg">
<g clip-path="url(#clip0_1531_8436)">
<path opacity="0.4" d="M9.33268 12.8766V10.2213C9.33268 10.1034 9.28586 9.99035 9.20251 9.907C9.11916 9.82365 9.00611 9.77683 8.88824 9.77683H7.11046C6.99259 9.77683 6.87954 9.82365 6.79619 9.907C6.71284 9.99035 6.66602 10.1034 6.66602 10.2213V12.8799C6.66602 12.9974 6.6195 13.1101 6.53663 13.1934C6.45376 13.2767 6.34128 13.3237 6.22379 13.3243L3.11046 13.3324C2.99259 13.3324 2.87954 13.2856 2.79619 13.2022C2.71284 13.1189 2.66602 13.0058 2.66602 12.8879V8.33405L7.78796 4.116C7.84816 4.06748 7.92314 4.04102 8.00046 4.04102C8.07778 4.04102 8.15276 4.06748 8.21296 4.116L13.3327 8.33238V12.8879C13.3327 13.0058 13.2859 13.1189 13.2025 13.2022C13.1192 13.2856 13.0061 13.3324 12.8882 13.3324L9.77713 13.3238C9.71853 13.3238 9.66051 13.3122 9.6064 13.2897C9.5523 13.2672 9.50318 13.2342 9.46187 13.1926C9.42056 13.1511 9.38788 13.1017 9.36571 13.0475C9.34354 12.9932 9.33232 12.9351 9.33268 12.8766Z" fill="#213F7D"/>
<path d="M15.9246 7.45395L15.2162 8.31506C15.1884 8.34892 15.1542 8.37696 15.1156 8.39759C15.0769 8.41822 15.0346 8.43103 14.991 8.43528C14.9474 8.43954 14.9034 8.43516 14.8615 8.4224C14.8196 8.40963 14.7806 8.38873 14.7468 8.36089L8.21264 2.97784C8.15245 2.92932 8.07746 2.90286 8.00014 2.90286C7.92283 2.90286 7.84784 2.92932 7.78764 2.97784L1.25378 8.36089C1.18548 8.41703 1.09769 8.44374 1.0097 8.43514C0.921715 8.42655 0.840748 8.38335 0.78461 8.31506L0.076279 7.45395C0.0200145 7.3858 -0.00688127 7.29809 0.00150514 7.21011C0.00989155 7.12213 0.0528736 7.04108 0.121001 6.98478L7.15153 1.19423C7.3902 0.997833 7.68967 0.890453 7.99875 0.890453C8.30783 0.890453 8.60731 0.997833 8.84597 1.19423L11.3324 3.23895V1.22201C11.3324 1.1336 11.3675 1.04882 11.43 0.986303C11.4925 0.923791 11.5773 0.888672 11.6657 0.888672H13.2212C13.3096 0.888672 13.3944 0.923791 13.4569 0.986303C13.5194 1.04882 13.5546 1.1336 13.5546 1.22201V5.06951L15.8768 6.98367C15.9109 7.01134 15.9392 7.04548 15.9601 7.08413C15.981 7.12278 15.994 7.16517 15.9984 7.20888C16.0029 7.25258 15.9986 7.29673 15.986 7.33879C15.9733 7.38085 15.9524 7.41998 15.9246 7.45395V7.45395Z" fill="#213F7D"/>
</g>
<defs>
<clipPath id="clip0_1531_8436">
<rect width="16" height="14.2222" fill="white"/>
</clipPath>
</defs>
</svg>
