<svg width="20" height="20" viewBox="0 0 20 20" fill="none" xmlns="http://www.w3.org/2000/svg">
<g clip-path="url(#clip0_1531_7642)">
<path d="M10.0007 6.11068C10.9229 6.11068 11.6673 5.36623 11.6673 4.44401C11.6673 3.52179 10.9229 2.77734 10.0007 2.77734C9.07843 2.77734 8.33398 3.52179 8.33398 4.44401C8.33398 5.36623 9.07843 6.11068 10.0007 6.11068ZM10.0007 8.3329C9.07843 8.3329 8.33398 9.07734 8.33398 9.99957C8.33398 10.9218 9.07843 11.6662 10.0007 11.6662C10.9229 11.6662 11.6673 10.9218 11.6673 9.99957C11.6673 9.07734 10.9229 8.3329 10.0007 8.3329ZM10.0007 13.8885C9.07843 13.8885 8.33398 14.6329 8.33398 15.5551C8.33398 16.4773 9.07843 17.2218 10.0007 17.2218C10.9229 17.2218 11.6673 16.4773 11.6673 15.5551C11.6673 14.6329 10.9229 13.8885 10.0007 13.8885Z" fill="#545F7D"/>
</g>
<defs>
<clipPath id="clip0_1531_7642">
<rect width="20" height="20" fill="white"/>
</clipPath>
</defs>
</svg>
