<svg width="16" height="16" viewBox="0 0 16 16" fill="none" xmlns="http://www.w3.org/2000/svg">
<g clip-path="url(#clip0_1531_7568)">
<path d="M14.9926 2.16039H12.7045V0.768519C12.7045 0.560391 12.5445 0.400391 12.3363 0.400391H10.657C10.4488 0.400391 10.2888 0.560391 10.2888 0.768519V2.16039H5.71253V0.768519C5.71253 0.560391 5.55253 0.400391 5.3444 0.400391H3.6644C3.45627 0.400391 3.29627 0.560391 3.29627 0.768519V2.16039H1.00875C0.816881 2.16039 0.640625 2.32039 0.640625 2.52852V15.2485C0.640625 15.4566 0.800625 15.6166 1.00875 15.6166H14.9924C15.1843 15.6166 15.3606 15.4566 15.3606 15.2485V2.52852C15.3606 2.32039 15.1843 2.16039 14.9924 2.16039H14.9926ZM11.0089 1.13665H11.9689V3.24849H11.0089V1.13665ZM4.01711 1.13665H4.97711V3.24849H4.01711V1.13665ZM14.6246 14.8642H1.37711V5.50417H14.6253L14.6246 14.8642Z" fill="#545F7D"/>
<path d="M3.20165 13.2174H4.91349C5.00973 13.2174 5.08974 13.1374 5.08974 13.0411V11.313C5.08974 11.2167 5.00974 11.1367 4.91349 11.1367L3.20165 11.1373C3.1054 11.1373 3.02539 11.2173 3.02539 11.3136V13.0254C3.02539 13.1373 3.10539 13.2173 3.20165 13.2173V13.2174Z" fill="#545F7D"/>
<path d="M7.13732 13.2174H8.84916C8.94541 13.2174 9.02542 13.1374 9.02542 13.0411L9.02479 11.313C9.02479 11.2167 8.94479 11.1367 8.84854 11.1367L7.13734 11.1373C7.04109 11.1373 6.96108 11.2173 6.96108 11.3136V13.0254C6.94483 13.1373 7.02483 13.2173 7.13734 13.2173L7.13732 13.2174Z" fill="#545F7D"/>
<path d="M11.0572 13.2174H12.7691C12.8653 13.2174 12.9453 13.1374 12.9453 13.0411L12.9447 11.313C12.9447 11.2167 12.8647 11.1367 12.7685 11.1367L11.0573 11.1373C10.961 11.1373 10.881 11.2173 10.881 11.3136V13.0254C10.8648 13.1373 10.9448 13.2173 11.0573 13.2173L11.0572 13.2174Z" fill="#545F7D"/>
<path d="M3.20165 9.26488H4.91349C5.00973 9.26488 5.08974 9.18488 5.08974 9.08862V7.37743C5.08974 7.28118 5.00974 7.20117 4.91349 7.20117H3.20165C3.1054 7.20117 3.02539 7.28117 3.02539 7.37743V9.08926C3.02539 9.18489 3.10539 9.2649 3.20165 9.2649V9.26488Z" fill="#545F7D"/>
<path d="M7.13732 9.26488H8.84916C8.94541 9.26488 9.02542 9.18488 9.02542 9.08862L9.02479 7.37743C9.02479 7.28118 8.94479 7.20117 8.84854 7.20117H7.13734C7.04109 7.20117 6.96108 7.28117 6.96108 7.37743V9.08926C6.94483 9.18489 7.02483 9.2649 7.13734 9.2649L7.13732 9.26488Z" fill="#545F7D"/>
<path d="M11.0572 9.26488H12.7691C12.8653 9.26488 12.9453 9.18488 12.9453 9.08862L12.9447 7.37743C12.9447 7.28118 12.8647 7.20117 12.7685 7.20117H11.0573C10.961 7.20117 10.881 7.28117 10.881 7.37743V9.08926C10.8648 9.18489 10.9448 9.2649 11.0573 9.2649L11.0572 9.26488Z" fill="#545F7D"/>
</g>
<defs>
<clipPath id="clip0_1531_7568">
<rect width="16" height="16" fill="white"/>
</clipPath>
</defs>
</svg>
