<svg width="16" height="16" viewBox="0 0 16 16" fill="none" xmlns="http://www.w3.org/2000/svg">
<path d="M8 3.03711C9.83851 3.03721 11.4995 3.88628 12.7979 4.85645C13.9379 5.70829 14.8031 6.66108 15.2764 7.22949V7.22461L15.4531 7.44043C15.7068 7.74939 15.7063 8.2487 15.4531 8.55762L15.4541 8.55859C15.043 9.07448 14.0971 10.1736 12.7979 11.1445C11.4995 12.1148 9.83851 12.9638 8 12.9639C6.1615 12.9639 4.50051 12.1146 3.20215 11.1465C1.90278 10.1776 0.956583 9.08241 0.545898 8.5752L0.544922 8.57422C0.277669 8.23527 0.27494 7.76848 0.544922 7.44238L0.951172 6.95703C1.45155 6.38496 2.22763 5.58461 3.20215 4.85645C4.50055 3.88633 6.1615 3.03711 8 3.03711ZM8 4.24414C6.48689 4.24414 5.06331 4.97 3.92285 5.81641C2.83646 6.62271 2.01764 7.53164 1.63477 7.99902C2.02655 8.4549 2.84591 9.36332 3.92969 10.1729C5.06829 11.0233 6.48736 11.7568 8 11.7568C9.51294 11.7567 10.932 11.0309 12.0703 10.1846C13.1553 9.37789 13.974 8.46794 14.3643 8C13.9738 7.53191 13.1549 6.62279 12.0703 5.81641C10.932 4.97007 9.51294 4.24424 8 4.24414Z" fill="#545F7D" stroke="#545F7D" stroke-width="0.2"/>
<path d="M8 4.9082C9.70316 4.90839 11.0918 6.29679 11.0918 8C11.0916 9.70305 9.70305 11.0916 8 11.0918C6.29679 11.0918 4.90839 9.70317 4.9082 8C4.9082 6.29668 6.29661 4.9082 8 4.9082ZM8 6.11621C6.96718 6.11621 6.11621 6.9671 6.11621 8C6.11631 9.03213 6.96719 9.88379 8 9.88379C9.0326 9.8836 9.88369 9.03262 9.88379 8C9.88379 6.9673 9.03266 6.1164 8 6.11621Z" fill="#545F7D" stroke="#545F7D" stroke-width="0.2"/>
</svg>
