<svg width="20" height="20" viewBox="0 0 20 20" fill="none" xmlns="http://www.w3.org/2000/svg">
<path d="M1.96094 0.400591V16.4124H8.31494V15.2124H3.16094V1.60059H9.19914V5.95839H13.3147V9.65439H14.5147V4.92619L10.0873 0.400391L1.96094 0.400591ZM10.3991 2.43659L12.6733 4.75839H10.3991V2.43659Z" fill="#F55F44"/>
<path d="M4.39258 8.35352H11.6028V9.55352H4.39258V8.35352Z" fill="#F55F44"/>
<path d="M4.39258 10.9531H8.00278V12.1531H4.39258V10.9531Z" fill="#F55F44"/>
<path d="M18.0371 17.943V12.4008C18.0371 10.7727 14.1911 10.7266 13.7527 10.7266C13.3144 10.7266 9.4707 10.7766 9.4707 12.4008V17.9804C9.47148 18.0413 9.48164 18.1015 9.50117 18.1585C9.84257 19.5608 13.3372 19.6007 13.7552 19.6007C14.1732 19.6007 17.9552 19.553 18.0348 17.9749C18.0348 17.9663 18.0371 17.9569 18.0371 17.9429L18.0371 17.943ZM16.8371 14.143C16.5988 14.3625 15.4988 14.7211 13.7551 14.7211C12.0106 14.7211 10.9191 14.3625 10.6707 14.1508V13.6352C11.8387 14.0609 13.4707 14.0789 13.7551 14.0789C14.0395 14.0789 15.6707 14.0586 16.8395 13.6352L16.8371 14.143ZM10.6707 15.4766C11.8387 15.9024 13.4707 15.9203 13.7551 15.9203C14.0395 15.9203 15.6707 15.9 16.8395 15.4766L16.8387 16.0008C16.5911 16.2125 15.4989 16.5711 13.7543 16.5711C12.0106 16.5711 10.9191 16.2008 10.6707 16.0008L10.6707 15.4766ZM13.7551 11.9306C15.2551 11.9306 16.2731 12.1962 16.6871 12.4048C16.273 12.6048 15.2551 12.879 13.7551 12.879C12.2551 12.879 11.2347 12.615 10.8231 12.4009C11.2348 12.2009 12.2528 11.9306 13.7551 11.9306ZM10.6707 17.8352V17.3188C11.8387 17.7446 13.4707 17.7625 13.7551 17.7625C14.0395 17.7625 15.6707 17.7422 16.8395 17.3188V17.8344C16.5887 18.0469 15.4989 18.4008 13.7551 18.4008C12.0106 18.4008 10.9191 18.0469 10.6707 17.8352Z" fill="#F55F44"/>
</svg>
