<svg width="16" height="16" viewBox="0 0 16 16" fill="none" xmlns="http://www.w3.org/2000/svg">
<g clip-path="url(#clip0_1531_7348)">
<path fill-rule="evenodd" clip-rule="evenodd" d="M7.98439 0.959351C7.85189 0.966226 7.73688 1.05373 7.69563 1.17997L6.08939 5.99934H0.945073V5.99996C0.806948 5.99996 0.684449 6.08871 0.641953 6.21996C0.598828 6.35121 0.645078 6.49497 0.755703 6.57746L4.93442 9.63314L3.32818 14.6207V14.62C3.28506 14.7525 3.33256 14.8969 3.44506 14.9782C3.55756 15.06 3.70943 15.0594 3.82131 14.9775L8.00003 11.9219L12.1788 14.9775C12.2906 15.0594 12.4425 15.06 12.555 14.9782C12.6675 14.8969 12.715 14.7525 12.6719 14.62L11.0656 9.63252L15.2444 6.57684V6.57746C15.355 6.49496 15.4012 6.35121 15.3581 6.21996C15.3156 6.08871 15.1931 5.99996 15.055 5.99996H9.91068L8.30444 1.1806V1.17997C8.26006 1.0431 8.1288 0.952471 7.98444 0.959351H7.98439ZM8.00001 2.29309L9.37564 6.41934V6.41996C9.41814 6.55121 9.54127 6.64058 9.68001 6.63996H14.0738L10.4987 9.25436V9.25499C10.3875 9.33623 10.3406 9.47998 10.3831 9.61187L11.7587 13.88L8.1893 11.2706H8.18867C8.07617 11.1881 7.92368 11.1881 7.81117 11.2706L4.24173 13.88L5.61736 9.61187H5.61673C5.65923 9.47999 5.61236 9.33623 5.50111 9.25499L1.92607 6.64059H6.31983V6.63996C6.45858 6.64059 6.5817 6.55121 6.6242 6.41996L7.99983 2.29372L8.00001 2.29309Z" fill="#E9B200"/>
</g>
<defs>
<clipPath id="clip0_1531_7348">
<rect width="16" height="16" fill="white"/>
</clipPath>
</defs>
</svg>
