<svg width="14" height="14" viewBox="0 0 14 14" fill="none" xmlns="http://www.w3.org/2000/svg">
<g clip-path="url(#clip0_1531_7539)">
<path d="M10.6973 12.9023L10.7002 12.8994L10.8213 12.9883L10.8232 12.9863L10.8252 12.9834L13.3594 9.44434C13.4724 9.28674 13.4544 9.08209 13.3291 8.94727L13.2686 8.89355C13.2035 8.84643 13.1303 8.82392 13.0586 8.82031L13.0498 8.81152L12.9736 8.82422C12.8722 8.84054 12.7811 8.89627 12.7178 8.98438L10.1826 12.5195C10.0901 12.6234 9.97214 12.6518 9.90625 12.6562H9.90527C9.8373 12.661 9.70889 12.648 9.60156 12.5488L9.59863 12.5459L7.9668 10.9541C7.80849 10.7993 7.56327 10.8034 7.40918 10.9609C7.25493 11.1187 7.25806 11.3631 7.41504 11.5176H7.41602L9.05078 13.1133L9.05273 13.1152C9.27555 13.3272 9.57395 13.4453 9.87988 13.4453C9.90032 13.4453 9.92439 13.4437 9.94727 13.4424V13.4434H9.95898C10.2891 13.4216 10.5988 13.2599 10.8076 13.0029L10.8105 13.001L10.8154 12.9951C10.8164 12.994 10.8166 12.9922 10.8174 12.9912H10.8184L10.8174 12.9922L10.7119 12.9131L10.6973 12.9023ZM10.6973 12.9023L10.8018 13.0059C10.8004 13.007 10.7996 13.0093 10.7979 13.0107C10.7948 13.0131 10.7859 13.02 10.7734 13.0264C10.7668 13.0296 10.7498 13.0362 10.7393 13.0391C10.7229 13.0419 10.6816 13.0411 10.6572 13.0352C10.6426 13.0284 10.6233 13.0144 10.6064 12.999C10.6116 12.9941 10.618 12.9904 10.623 12.9854L10.6953 12.9043L10.6973 12.9023ZM7 0.554688C8.85629 0.554688 10.3611 2.06087 10.3613 3.91699C10.3613 4.94979 9.89487 5.87321 9.16211 6.49023L9.01172 6.60938L8.83105 6.74414L9.04492 6.81445C9.86951 7.08541 10.638 7.52175 11.3018 8.10156C11.4684 8.2473 11.485 8.49089 11.3398 8.65723C11.1936 8.82359 10.949 8.83919 10.7832 8.69434C9.83377 7.86482 8.64097 7.37301 7.38867 7.28809L7.1377 7.27637H7.13086L6.99902 7.2793L6.86816 7.27637H6.86133L6.61328 7.28809C4.06582 7.46048 1.89369 9.32377 1.36816 11.8467V11.8477C1.32796 12.0397 1.37726 12.2409 1.50098 12.3936L1.50488 12.3984C1.57996 12.4894 1.74949 12.6328 2.00195 12.6328H6.51367C6.73436 12.633 6.90723 12.8065 6.90723 13.0273C6.90713 13.2493 6.73364 13.4207 6.51367 13.4209H2.00195C1.56744 13.4209 1.16363 13.2293 0.889648 12.8926C0.613914 12.5534 0.508164 12.1165 0.597656 11.6875C0.899345 10.2393 1.69808 8.91993 2.84766 7.97461C3.47471 7.45898 4.19178 7.06767 4.95508 6.81641L5.16895 6.74512L4.98926 6.61035C4.17016 5.99666 3.63772 5.02013 3.6377 3.91797C3.6377 2.10434 5.07463 0.626572 6.87109 0.558594L6.87207 0.554688H7ZM6.73633 1.35645C5.44192 1.48879 4.42402 2.58906 4.42383 3.91699V4.03516H4.46289L4.47656 4.16992C4.60549 5.42442 5.6032 6.4253 6.86914 6.48828L6.87891 6.48926H6.87988C6.91766 6.48875 6.96125 6.4873 7 6.4873C7.03885 6.48731 7.07924 6.48717 7.12109 6.48828H7.12988L7.38086 6.46387C8.61918 6.27914 9.57422 5.20468 9.57422 3.91699C9.574 2.5 8.41565 1.34375 6.99902 1.34375L6.73633 1.35645Z" fill="#545F7D" stroke="#545F7D" stroke-width="0.3"/>
</g>
<defs>
<clipPath id="clip0_1531_7539">
<rect width="14" height="14" fill="white"/>
</clipPath>
</defs>
</svg>
