<svg width="24" height="24" viewBox="0 0 24 24" fill="none" xmlns="http://www.w3.org/2000/svg">
<path d="M17.9307 19.6191C17.5107 14.5845 11.3816 12.2245 7.77246 15.8721C6.8073 16.848 6.17107 18.1934 6.0498 19.6191H17.9307ZM16.3525 11.4199C15.8821 12.2378 15.1925 12.9128 14.3604 13.3604C15.5214 13.7736 16.5453 14.4863 17.3438 15.4033H20.9551C20.6886 13.0923 18.7196 11.3415 16.3525 11.4199ZM7.64941 11.4199C5.28285 11.3421 3.31438 13.0936 3.04785 15.4033H6.63574C7.43684 14.481 8.46595 13.77 9.63184 13.3555C8.80293 12.9099 8.11765 12.2348 7.64941 11.4199ZM11.9883 4.98828C9.24214 4.98938 7.27865 7.87666 8.50098 10.5391C9.88179 13.5429 14.1182 13.5403 15.499 10.5391C16.6826 7.96623 14.9021 5.02409 11.9883 4.98828ZM18.5293 5.21973C17.5825 4.26252 16.1119 4.11046 14.9951 4.82812C16.6084 6.03605 17.3699 8.11186 16.876 10.1143C19.1944 9.82731 20.2113 6.91865 18.5293 5.21973ZM9.00781 4.82715C7.14988 3.6265 4.64082 4.95982 4.64062 7.25977C4.64062 8.71721 5.7124 9.9318 7.12402 10.1123C6.63131 8.11014 7.3946 6.03442 9.00781 4.82715ZM22.1436 15.9805C22.1436 16.2999 21.885 16.5594 21.5645 16.5596H18.1641C18.7589 17.6088 19.1337 18.931 19.1338 20.1982C19.1338 20.5177 18.8754 20.7773 18.5547 20.7773L5.41602 20.7744H5.40918C5.24311 20.7628 5.10564 20.6924 5.01074 20.5762C4.93609 20.4847 4.89289 20.3698 4.87793 20.2422H4.86816V20.1426C4.86816 18.8375 5.21465 17.6154 5.81445 16.5605H2.43555C2.26493 16.5605 2.11902 16.4974 2.01562 16.3828C1.91354 16.2696 1.85979 16.1143 1.85645 15.9395V15.7207C1.89723 13.5375 3.34615 11.5112 5.35742 10.6787C1.99585 8.57223 3.45294 3.22168 7.48242 3.22168C8.45457 3.22175 9.37715 3.57726 10.0957 4.20605C11.3075 3.70662 12.6925 3.70663 13.9043 4.20605C16.468 1.96108 20.5182 3.79477 20.5186 7.25781C20.5186 8.67374 19.7844 9.94961 18.6396 10.6768C20.7602 11.5455 22.113 13.5769 22.1436 15.9795V15.9805Z" fill="#5718FF" stroke="#5718FF" stroke-width="0.2"/>
<path d="M13.6074 9.5C13.7496 9.4648 13.8988 9.48958 14.0234 9.55371C14.1481 9.61791 14.255 9.72523 14.3086 9.86133C14.363 9.99981 14.3589 10.1614 14.2744 10.3252C13.3193 12.1778 10.6815 12.1777 9.72559 10.3252C9.64131 10.1613 9.63792 9.99974 9.69238 9.86133C9.74601 9.72525 9.85298 9.61785 9.97754 9.55371C10.102 9.48978 10.2509 9.46569 10.3926 9.50098C10.5368 9.53704 10.6667 9.63328 10.751 9.79688C11.2784 10.8143 12.721 10.8164 13.2471 9.79688C13.3322 9.63297 13.4627 9.53596 13.6074 9.5Z" fill="#5718FF" stroke="#5718FF" stroke-width="0.2"/>
</svg>
