<svg width="40" height="40" viewBox="0 0 40 40" fill="none" xmlns="http://www.w3.org/2000/svg">
<path d="M6.04102 35.1805C6.4801 32.2212 7.79414 29.6273 9.9801 27.4009C12.741 24.6009 16.0737 23.2009 19.9801 23.2009C23.8865 23.2009 27.2209 24.6009 29.9801 27.4009C32.1801 29.6275 33.5067 32.2213 33.9598 35.1805M28.141 14.0213C28.141 16.2479 27.3473 18.1541 25.7598 19.7417C24.1739 21.3417 22.2535 22.1417 20.0006 22.1417C17.7599 22.1417 15.8414 21.3417 14.2414 19.7417C12.6539 18.1542 11.8601 16.248 11.8601 14.0213C11.8601 11.7682 12.6539 9.84774 14.2414 8.26054C15.8414 6.67462 17.7601 5.88086 20.0006 5.88086C22.2537 5.88086 24.1742 6.67462 25.7598 8.26054C27.3473 9.84806 28.141 11.7683 28.141 14.0213Z" stroke="#213F7D" stroke-width="3" stroke-linecap="round" stroke-linejoin="round"/>
</svg>
