<svg width="22" height="22" viewBox="0 0 22 22" fill="none" xmlns="http://www.w3.org/2000/svg">
<g clip-path="url(#clip0_1531_7796)">
<path d="M13.998 9.68164C13.9981 9.81671 14.0332 10.0911 14.1182 10.3818C14.2036 10.6739 14.335 10.9666 14.5186 11.1504L14.6582 11.29V11.4785C14.6582 12.3876 14.3244 12.9831 13.8398 13.4053C13.3616 13.8219 12.7394 14.0663 12.1738 14.2852C11.8338 14.4362 11.5204 14.539 11.1963 14.7188L11.1094 14.7676L10.6943 14.0205L10.6436 13.9287L10.7363 13.8818C11.1076 13.6958 11.4775 13.548 11.8438 13.4014C12.4332 13.1617 12.8846 12.9656 13.2002 12.6982C13.5012 12.4432 13.6803 12.1205 13.7207 11.6152C13.486 11.3129 13.3321 10.9398 13.2334 10.6074C13.1356 10.278 13.0889 9.98289 13.0684 9.82617C12.6741 9.21052 12.4778 8.57619 12.585 8.10254C12.4945 7.74706 12.4409 7.27873 12.501 6.82129C12.5614 6.36137 12.7376 5.90185 13.1162 5.58691C13.3503 4.91197 13.8427 4.4246 14.4775 4.12598L14.4814 4.125L14.6699 4.05273C15.5703 3.74233 16.7248 3.81028 17.7842 4.24707L18.0098 4.34668L18.0156 4.34863V4.34961L18.3457 4.53125L18.4209 4.57324L18.3906 4.6543L18.2812 4.94727L18.2803 4.94629C18.1116 5.42098 18.2444 5.79207 18.4268 6.23047H18.4258C18.6455 6.74392 18.8767 7.39103 18.5459 8.18848C18.612 8.62047 18.455 9.24574 18.0625 9.86035C18.042 10.0172 17.9964 10.3127 17.8984 10.6426C17.7995 10.9756 17.6448 11.3497 17.4092 11.6523C17.4327 12.1562 17.6117 12.4783 17.917 12.7334C18.237 13.0007 18.6969 13.1969 19.2861 13.4365C19.8888 13.6741 20.5954 13.9554 21.1475 14.4648C21.7048 14.9794 22.1006 15.7215 22.1006 16.8662V17.333H14.5674V16.3994H21.1514C21.0646 15.7551 20.8038 15.3417 20.4375 15.0371C20.0444 14.7103 19.5286 14.5044 18.957 14.2832C18.3914 14.0643 17.7692 13.8199 17.291 13.4033C16.8067 12.9812 16.4736 12.3854 16.4736 11.4766V11.2881L16.6123 11.1494C16.7951 10.9667 16.9178 10.6753 16.999 10.3818C17.0794 10.0913 17.1154 9.81301 17.1338 9.66699V9.53906L17.1504 9.51367L17.2217 9.40918C17.4183 9.08713 17.5248 8.81219 17.5771 8.61133C17.6033 8.51093 17.616 8.43009 17.6201 8.37207C17.6222 8.34295 17.6213 8.32065 17.6201 8.30566C17.6186 8.2876 17.6167 8.28818 17.6211 8.29688V8.2959L17.5479 8.14941L17.5283 8.10938L17.5449 8.06738L17.6172 7.88477L17.6221 7.87402L17.668 7.78125C17.8715 7.32412 17.7176 6.97761 17.543 6.48828V6.4873C17.3668 6.06542 17.1858 5.59052 17.2715 4.97949C16.4302 4.64801 15.54 4.62573 14.8936 4.93164L14.8896 4.93359C14.4068 5.14068 14.1326 5.48217 13.9932 5.96875L13.957 6.11328L13.9482 6.15039L13.916 6.17188L13.8066 6.24316C13.605 6.3831 13.4917 6.66757 13.4561 7.00586C13.4209 7.34011 13.4649 7.70172 13.5518 7.96289L13.5547 7.96973V7.9707L13.5908 8.11719L13.6006 8.15332L13.584 8.18652L13.5146 8.32324C13.5116 8.33517 13.5084 8.36752 13.5127 8.42383C13.5173 8.48291 13.5305 8.56183 13.5586 8.65918C13.6009 8.80555 13.6761 8.99182 13.8018 9.21191L13.9443 9.44336L13.9512 9.45312H13.9502L13.9873 9.52637L13.998 9.54785V9.68164Z" fill="#DF18FF" stroke="#DF18FF" stroke-width="0.2"/>
<path d="M7.22363 4.52148C7.87989 4.52148 8.40008 4.66204 8.81445 4.90625C9.22883 5.15054 9.53199 5.49471 9.75879 5.8916C10.0967 6.48302 10.2696 7.19885 10.3965 7.88867L10.5127 8.56445V8.56543C10.6045 9.15366 10.6949 9.71407 10.8477 10.1816C11.0002 10.6482 11.2096 11.0061 11.5273 11.208L11.8555 11.3896L11.9502 11.4424L11.8906 11.5322L11.6699 11.8623C11.153 12.6368 10.0063 13.3596 8.81836 13.7061C9.2264 14.8938 10.2109 15.2407 11.2891 15.6357H11.29C11.9098 15.8546 12.5973 16.0985 13.127 16.5479C13.6634 17.003 14.0332 17.6636 14.0332 18.7002V19.167H-0.0996094V18.7002C-0.0996044 17.6635 0.26994 17.0029 0.811523 16.5479C1.34566 16.099 2.04121 15.8551 2.67969 15.6367L3.08887 15.4844C4.00038 15.1324 4.79456 14.7128 5.15039 13.7061C3.96318 13.3593 2.81656 12.6374 2.30078 11.8633L2.08105 11.5332L2.02051 11.4434L2.11523 11.3906L2.43945 11.2109L2.55957 11.123C2.82242 10.9066 2.97265 10.6083 3.06152 10.249C3.16393 9.83479 3.1826 9.35016 3.20117 8.83398C3.21952 8.17849 3.23734 7.42641 3.49707 6.7793C3.75845 6.12837 4.26233 5.58739 5.22949 5.33789C5.5379 5.03225 6.14614 4.52157 7.22363 4.52148ZM7.22168 5.45215C6.41962 5.45215 6.04074 5.83133 5.78906 6.08301L5.69922 6.17285L5.67676 6.18066L5.56738 6.2168L5.55664 6.2207V6.21973C5.22817 6.29071 4.98107 6.40088 4.79395 6.54395C4.60762 6.68647 4.47571 6.86618 4.38086 7.08398C4.18848 7.52597 4.1504 8.11993 4.13184 8.875V8.87598C4.11387 9.3689 4.09576 9.90094 3.9834 10.3975C3.87777 10.864 3.68514 11.3039 3.3291 11.6592C3.88016 12.2064 4.87865 12.7457 5.81055 12.918H5.81152L6.17871 12.9912L6.27637 13.0107L6.25684 13.1084L6.18457 13.4756L6.18359 13.4775C5.95833 14.4912 5.47697 15.1356 4.88574 15.585C4.44573 15.9192 3.9458 16.144 3.4541 16.3359L2.96777 16.5205C2.41229 16.7245 1.92397 16.894 1.55273 17.1592C1.21374 17.4014 0.975082 17.7235 0.887695 18.2334H13.0781C12.9907 17.7406 12.7532 17.4183 12.4141 17.1719C12.1355 16.9695 11.7902 16.8185 11.4014 16.6699L10.999 16.5205C10.3608 16.2833 9.65777 16.0308 9.06641 15.585C8.4704 15.1356 7.98884 14.4913 7.78223 13.4766V13.4756L7.70898 13.1084L7.68945 13.0107L7.78809 12.9912L8.15527 12.918H8.15625L8.33887 12.8799C9.21746 12.6747 10.1239 12.1684 10.6387 11.6562C10.3147 11.3021 10.1061 10.8557 9.95801 10.3682C9.79984 9.84729 9.70652 9.27207 9.61523 8.70508V8.7041C9.4316 7.65596 9.25967 6.84231 8.91895 6.28906C8.75053 6.01575 8.54204 5.8088 8.27148 5.66895C7.99999 5.52862 7.65935 5.45219 7.22168 5.45215Z" fill="#DF18FF" stroke="#DF18FF" stroke-width="0.2"/>
</g>
<defs>
<clipPath id="clip0_1531_7796">
<rect width="22" height="22" fill="white"/>
</clipPath>
</defs>
</svg>
