<svg width="87" height="19" viewBox="0 0 87 19" fill="none" xmlns="http://www.w3.org/2000/svg">
<g opacity="0.6">
<path d="M31.728 4.44C32.8053 4.44 33.6693 4.71733 34.32 5.272C34.9707 5.82667 35.296 6.57867 35.296 7.528C35.296 8.47733 34.9653 9.21867 34.304 9.752C33.6533 10.2747 32.7893 10.536 31.712 10.536L31.6 10.616H29.008V15H27.728V4.44H31.728ZM31.712 9.416C32.4693 9.416 33.0293 9.26133 33.392 8.952C33.7653 8.632 33.952 8.15733 33.952 7.528C33.952 6.89867 33.7653 6.42933 33.392 6.12C33.0293 5.8 32.4693 5.64 31.712 5.64H29.008V9.416H31.712ZM32.448 9.672L35.936 15H34.416L31.376 10.376L32.448 9.672ZM41.207 15.16C40.4497 15.16 39.7723 14.9947 39.175 14.664C38.5883 14.3333 38.1297 13.8587 37.799 13.24C37.4683 12.6107 37.303 11.864 37.303 11C37.303 10.136 37.4683 9.39467 37.799 8.776C38.1297 8.14667 38.583 7.66667 39.159 7.336C39.735 7.00533 40.391 6.84 41.127 6.84C41.8737 6.84 42.5083 7 43.031 7.32C43.5643 7.64 43.9697 8.07733 44.247 8.632C44.5243 9.176 44.663 9.78933 44.663 10.472C44.663 10.6533 44.6577 10.8187 44.647 10.968C44.6363 11.1173 44.6203 11.2507 44.599 11.368H38.135V10.232H44.039L43.383 10.36C43.383 9.592 43.1697 9 42.743 8.584C42.327 8.168 41.7777 7.96 41.095 7.96C40.5723 7.96 40.119 8.08267 39.735 8.328C39.3617 8.56267 39.0683 8.90933 38.855 9.368C38.6523 9.816 38.551 10.36 38.551 11C38.551 11.6293 38.6577 12.1733 38.871 12.632C39.0843 13.0907 39.383 13.4427 39.767 13.688C40.1617 13.9227 40.631 14.04 41.175 14.04C41.7617 14.04 42.2363 13.928 42.599 13.704C42.9723 13.48 43.271 13.176 43.495 12.792L44.503 13.384C44.3003 13.7467 44.039 14.0613 43.719 14.328C43.4097 14.5947 43.0417 14.8027 42.615 14.952C42.199 15.0907 41.7297 15.16 41.207 15.16ZM47.0974 18.36V7H48.2174L48.3294 8.952L48.1534 8.728C48.292 8.35467 48.5 8.02933 48.7774 7.752C49.0547 7.464 49.3907 7.24 49.7854 7.08C50.18 6.92 50.6067 6.84 51.0654 6.84C51.716 6.84 52.3134 7.00533 52.8574 7.336C53.412 7.66667 53.8547 8.14133 54.1854 8.76C54.516 9.37867 54.6814 10.1253 54.6814 11C54.6814 11.864 54.5107 12.6107 54.1694 13.24C53.8387 13.8587 53.396 14.3333 52.8414 14.664C52.2867 14.9947 51.6787 15.16 51.0174 15.16C50.356 15.16 49.7747 15 49.2734 14.68C48.7827 14.3493 48.4307 13.9333 48.2174 13.432L48.3774 13.192V18.36H47.0974ZM50.8894 14.04C51.6787 14.04 52.292 13.7627 52.7294 13.208C53.1774 12.6533 53.4014 11.9173 53.4014 11C53.4014 10.0827 53.1827 9.34667 52.7454 8.792C52.3187 8.23733 51.716 7.96 50.9374 7.96C50.4254 7.96 49.9774 8.088 49.5934 8.344C49.2094 8.58933 48.9107 8.94133 48.6974 9.4C48.484 9.848 48.3774 10.3813 48.3774 11C48.3774 11.608 48.4787 12.1413 48.6814 12.6C48.8947 13.0587 49.188 13.416 49.5614 13.672C49.9454 13.9173 50.388 14.04 50.8894 14.04ZM60.4406 6.84C61.198 6.84 61.8646 7.00533 62.4406 7.336C63.0273 7.66667 63.486 8.14667 63.8166 8.776C64.1473 9.39467 64.3126 10.136 64.3126 11C64.3126 11.864 64.1473 12.6107 63.8166 13.24C63.486 13.8587 63.0273 14.3333 62.4406 14.664C61.8646 14.9947 61.198 15.16 60.4406 15.16C59.694 15.16 59.0273 14.9947 58.4406 14.664C57.854 14.3333 57.3953 13.8587 57.0646 13.24C56.734 12.6107 56.5686 11.864 56.5686 11C56.5686 10.136 56.734 9.39467 57.0646 8.776C57.3953 8.14667 57.854 7.66667 58.4406 7.336C59.0273 7.00533 59.694 6.84 60.4406 6.84ZM60.4406 7.944C59.8966 7.944 59.4326 8.06667 59.0486 8.312C58.6646 8.55733 58.366 8.90933 58.1526 9.368C57.95 9.816 57.8486 10.36 57.8486 11C57.8486 11.6293 57.95 12.1733 58.1526 12.632C58.366 13.0907 58.6646 13.4427 59.0486 13.688C59.4326 13.9333 59.8966 14.056 60.4406 14.056C60.9846 14.056 61.4486 13.9333 61.8326 13.688C62.2166 13.4427 62.51 13.0907 62.7126 12.632C62.926 12.1733 63.0326 11.6293 63.0326 11C63.0326 10.36 62.926 9.816 62.7126 9.368C62.51 8.90933 62.2166 8.55733 61.8326 8.312C61.4486 8.06667 60.9846 7.944 60.4406 7.944ZM66.7224 15V7H67.7624L67.9384 8.312C68.1624 7.82133 68.4877 7.45333 68.9144 7.208C69.3517 6.96267 69.8797 6.84 70.4984 6.84C70.637 6.84 70.7864 6.85067 70.9464 6.872C71.117 6.89333 71.261 6.936 71.3784 7L71.1544 8.168C71.037 8.12533 70.909 8.09333 70.7704 8.072C70.6317 8.05067 70.4344 8.04 70.1784 8.04C69.8477 8.04 69.5117 8.136 69.1704 8.328C68.8397 8.52 68.5624 8.81333 68.3384 9.208C68.1144 9.592 68.0024 10.0827 68.0024 10.68V15H66.7224ZM74.6573 4.728V12.792C74.6573 13.1867 74.7693 13.48 74.9933 13.672C75.2173 13.864 75.5053 13.96 75.8573 13.96C76.1666 13.96 76.4333 13.9067 76.6573 13.8C76.8813 13.6933 77.0839 13.5493 77.2653 13.368L77.7133 14.44C77.4679 14.664 77.1746 14.84 76.8333 14.968C76.5026 15.096 76.1186 15.16 75.6813 15.16C75.2759 15.16 74.8973 15.0907 74.5453 14.952C74.1933 14.8027 73.9106 14.5733 73.6973 14.264C73.4946 13.944 73.3879 13.528 73.3773 13.016V5.08L74.6573 4.728ZM77.5693 7V8.104H71.7773V7H77.5693ZM82.3524 15.16C81.5737 15.16 80.8537 14.9947 80.1924 14.664C79.5417 14.3333 79.0404 13.864 78.6884 13.256L79.7764 12.472C80.011 12.9627 80.3524 13.3467 80.8004 13.624C81.259 13.9013 81.8084 14.04 82.4484 14.04C83.0137 14.04 83.4564 13.9333 83.7764 13.72C84.0964 13.496 84.2564 13.208 84.2564 12.856C84.2564 12.632 84.1817 12.4293 84.0324 12.248C83.8937 12.056 83.6217 11.9173 83.2164 11.832L81.2964 11.432C80.5177 11.272 79.9577 11.0053 79.6164 10.632C79.2857 10.2587 79.1204 9.79467 79.1204 9.24C79.1204 8.80267 79.243 8.40267 79.4884 8.04C79.7444 7.67733 80.1017 7.38933 80.5604 7.176C81.0297 6.952 81.579 6.84 82.2084 6.84C82.9977 6.84 83.6644 6.99467 84.2084 7.304C84.7524 7.61333 85.1577 8.05067 85.4244 8.616L84.3524 9.32C84.171 8.85067 83.8777 8.50933 83.4724 8.296C83.067 8.072 82.6457 7.96 82.2084 7.96C81.8244 7.96 81.4937 8.01333 81.2164 8.12C80.9497 8.22667 80.7417 8.376 80.5924 8.568C80.4537 8.74933 80.3844 8.95733 80.3844 9.192C80.3844 9.42667 80.4644 9.64533 80.6244 9.848C80.7844 10.04 81.083 10.1787 81.5204 10.264L83.5204 10.68C84.267 10.8293 84.7897 11.0747 85.0884 11.416C85.387 11.7573 85.5364 12.1733 85.5364 12.664C85.5364 13.1653 85.403 13.608 85.1364 13.992C84.8697 14.3653 84.4964 14.6533 84.0164 14.856C83.5364 15.0587 82.9817 15.16 82.3524 15.16Z" fill="#213F7D"/>
<path opacity="0.4" d="M16 15.5V16.5C16 16.6326 15.9473 16.7598 15.8536 16.8536C15.7598 16.9473 15.6326 17 15.5 17H1C0.734784 17 0.48043 16.8946 0.292893 16.7071C0.105357 16.5196 0 16.2652 0 16V5.5C0 5.36739 0.0526784 5.24021 0.146447 5.14645C0.240215 5.05268 0.367392 5 0.5 5H1.5C1.63261 5 1.75979 5.05268 1.85355 5.14645C1.94732 5.24021 2 5.36739 2 5.5V15H15.5C15.6326 15 15.7598 15.0527 15.8536 15.1464C15.9473 15.2402 16 15.3674 16 15.5Z" fill="#213F7D"/>
<path d="M8.6 6H7.4C7.2 6 7 6.2 7 6.4V12.6C7 12.8 7.2 13 7.4 13H8.6C8.8 13 9 12.8 9 12.6V6.4C9 6.2 8.8 6 8.6 6ZM5.6 10H4.4C4.2 10 4 10.2 4 10.4V12.6C4 12.8 4.2 13 4.4 13H5.6C5.8 13 6 12.8 6 12.6V10.4C6 10.2 5.8 10 5.6 10V10ZM14.6 5H13.4C13.2 5 13 5.2 13 5.4V12.6C13 12.8 13.2 13 13.4 13H14.6C14.8 13 15 12.8 15 12.6V5.4C15 5.2 14.8 5 14.6 5ZM11.6 8H10.4C10.2 8 10 8.2 10 8.4V12.6C10 12.8 10.2 13 10.4 13H11.6C11.8 13 12 12.8 12 12.6V8.4C12 8.2 11.8 8 11.6 8Z" fill="#213F7D"/>
</g>
</svg>
