<svg width="16" height="16" viewBox="0 0 16 16" fill="none" xmlns="http://www.w3.org/2000/svg">
<g clip-path="url(#clip0_1531_7909)">
<path opacity="0.4" d="M5.625 14H3C2.20435 14 1.44129 13.6839 0.87868 13.1213C0.31607 12.5587 0 11.7956 0 11L0 5C0 4.20435 0.31607 3.44129 0.87868 2.87868C1.44129 2.31607 2.20435 2 3 2H5.625C5.72446 2 5.81984 2.03951 5.89016 2.10983C5.96049 2.18016 6 2.27554 6 2.375V3.625C6 3.72446 5.96049 3.81984 5.89016 3.89017C5.81984 3.96049 5.72446 4 5.625 4H3C2.73478 4 2.48043 4.10536 2.29289 4.29289C2.10536 4.48043 2 4.73478 2 5V11C2 11.2652 2.10536 11.5196 2.29289 11.7071C2.48043 11.8946 2.73478 12 3 12H5.625C5.72446 12 5.81984 12.0395 5.89016 12.1098C5.96049 12.1802 6 12.2755 6 12.375V13.625C6 13.7245 5.96049 13.8198 5.89016 13.8902C5.81984 13.9605 5.72446 14 5.625 14V14Z" fill="#213F7D"/>
<path d="M11.0313 2.75849L15.7781 7.46474C15.8485 7.53447 15.9044 7.61746 15.9425 7.70891C15.9807 7.80036 16.0003 7.89846 16.0003 7.99755C16.0003 8.09663 15.9807 8.19473 15.9425 8.28619C15.9044 8.37764 15.8485 8.46063 15.7781 8.53036L11.0281 13.2429C10.8868 13.3821 10.6962 13.4599 10.4978 13.4593C10.2994 13.4587 10.1093 13.3798 9.96875 13.2397L9.28438 12.5554C9.21298 12.4835 9.15683 12.398 9.1193 12.3039C9.08177 12.2098 9.06363 12.1091 9.06596 12.0078C9.0683 11.9066 9.09106 11.8068 9.13289 11.7146C9.17472 11.6223 9.23475 11.5395 9.30938 11.471L11.7344 9.24911H5.75C5.65144 9.24936 5.5538 9.23013 5.4627 9.19252C5.37159 9.15492 5.28881 9.09969 5.21912 9.02999C5.14943 8.9603 5.09419 8.87752 5.05659 8.78642C5.01899 8.69531 4.99976 8.59767 5 8.49911V7.49911C4.99976 7.40055 5.01899 7.30291 5.05659 7.21181C5.09419 7.1207 5.14943 7.03792 5.21912 6.96823C5.28881 6.89854 5.37159 6.8433 5.4627 6.8057C5.5538 6.76809 5.65144 6.74886 5.75 6.74911H11.7344L9.30938 4.52724C9.23516 4.45874 9.17555 4.37596 9.1341 4.28386C9.09266 4.19176 9.07025 4.09224 9.0682 3.99127C9.06616 3.8903 9.08453 3.78995 9.12222 3.69625C9.1599 3.60255 9.21612 3.51743 9.2875 3.44599L9.97188 2.76161C10.1121 2.62094 10.3023 2.5416 10.5009 2.54102C10.6995 2.54043 10.8902 2.61864 11.0313 2.75849V2.75849Z" fill="#213F7D"/>
</g>
<defs>
<clipPath id="clip0_1531_7909">
<rect width="16" height="16" fill="white"/>
</clipPath>
</defs>
</svg>
