<svg width="16" height="16" viewBox="0 0 16 16" fill="none" xmlns="http://www.w3.org/2000/svg">
<path fill-rule="evenodd" clip-rule="evenodd" d="M7.98572 1.28736C7.85197 1.29299 7.73572 1.38111 7.69447 1.50861L6.18759 6.17981L1.28071 6.16981C1.14196 6.16981 1.01821 6.25918 0.975716 6.39106C0.932591 6.52356 0.980091 6.66794 1.09259 6.74981L5.06891 9.62661L3.54203 14.2928C3.49891 14.4247 3.54578 14.5697 3.65828 14.651C3.77016 14.7329 3.92265 14.7329 4.03454 14.651L7.9995 11.7579L11.9657 14.651C12.0776 14.7329 12.2301 14.7329 12.342 14.651C12.4545 14.5697 12.5014 14.4247 12.4582 14.2928L10.9314 9.62661L14.9077 6.74981C15.0202 6.66793 15.0677 6.52355 15.0246 6.39106C14.9814 6.25918 14.8583 6.16981 14.7196 6.17043L9.81269 6.18043L8.30393 1.50923V1.50861C8.25956 1.37173 8.12957 1.28173 7.98581 1.28736L7.98572 1.28736Z" fill="#E9B200"/>
</svg>
