<svg width="16" height="18" viewBox="0 0 16 18" fill="none" xmlns="http://www.w3.org/2000/svg">
<path d="M13.0001 5.94542V0.999364C13.0001 0.734985 12.8941 0.47999 12.7066 0.292506C12.5191 0.105022 12.2651 0 11.9998 0H1.0003C0.448119 0 0 0.447183 0 0.999364V16.9994C0 17.2647 0.104998 17.5187 0.292506 17.7062C0.480014 17.8937 0.735009 17.9997 1.0003 17.9997H11.9998C12.2651 17.9997 12.5191 17.8937 12.7066 17.7062C12.8941 17.5187 13.0001 17.2647 13.0001 16.9994V12.9446H11.9998V16.9994H1.0003V0.999364H11.9998V5.94542H13.0001Z" fill="#213F7D"/>
<path d="M2 13.9941H10.9998V14.9944H2V13.9941Z" fill="#213F7D"/>
<path d="M2 2.49609H10.9998V3.49639H2V2.49609Z" fill="#213F7D"/>
<path d="M5.74967 15.4941C5.47406 15.4941 5.25 15.7182 5.25 15.9947C5.25 16.2704 5.47406 16.4944 5.74967 16.4944H7.24964C7.52619 16.4944 7.75025 16.2704 7.75025 15.9947C7.75025 15.7182 7.52619 15.4941 7.24964 15.4941H5.74967Z" fill="#213F7D"/>
<path d="M10.9992 6.44495H6.49928V4.44531L2.5 6.94462L6.49928 9.44489V7.44525H10.9992V6.44495Z" fill="#213F7D"/>
<path d="M16.0001 9.44558L11.9999 6.94531V8.94589H7.5V9.94525H11.9999V11.9458L16.0001 9.44558Z" fill="#213F7D"/>
</svg>
