<svg width="16" height="13" viewBox="0 0 16 13" fill="none" xmlns="http://www.w3.org/2000/svg">
<path opacity="0.4" d="M2.4 5.60039C2.71645 5.60039 3.02579 5.50655 3.28891 5.33074C3.55203 5.15493 3.75711 4.90505 3.87821 4.61269C3.99931 4.32032 4.03099 3.99862 3.96926 3.68825C3.90752 3.37788 3.75513 3.09278 3.53137 2.86902C3.30761 2.64526 3.02251 2.49287 2.71214 2.43113C2.40177 2.3694 2.08007 2.40108 1.78771 2.52218C1.49534 2.64328 1.24546 2.84836 1.06965 3.11148C0.893838 3.3746 0.8 3.68394 0.8 4.00039C0.800397 4.42462 0.969096 4.83135 1.26907 5.13132C1.56904 5.4313 1.97578 5.59999 2.4 5.60039V5.60039ZM14.4 6.40039H12.8C12.3774 6.39993 11.9719 6.56717 11.6725 6.86539C12.1789 7.14099 12.613 7.53242 12.9392 8.00773C13.2655 8.48305 13.4748 9.02878 13.55 9.60039H15.2C15.4122 9.60039 15.6157 9.51611 15.7657 9.36608C15.9157 9.21605 16 9.01257 16 8.80039V8.00039C15.9996 7.57617 15.8309 7.16943 15.5309 6.86946C15.231 6.56949 14.8242 6.40079 14.4 6.40039ZM1.6 6.40039C1.17578 6.40079 0.76904 6.56949 0.469068 6.86946C0.169096 7.16943 0.000397152 7.57617 0 8.00039V8.80039C0 9.01257 0.0842855 9.21605 0.234315 9.36608C0.384344 9.51611 0.587827 9.60039 0.8 9.60039H2.4475C2.52367 9.02878 2.73362 8.48319 3.06028 8.00797C3.38694 7.53274 3.82111 7.14128 4.3275 6.86539C4.02809 6.56717 3.62259 6.39993 3.2 6.40039H1.6ZM13.6 5.60039C13.9165 5.60039 14.2258 5.50655 14.4889 5.33074C14.752 5.15493 14.9571 4.90505 15.0782 4.61269C15.1993 4.32032 15.231 3.99862 15.1693 3.68825C15.1075 3.37788 14.9551 3.09278 14.7314 2.86902C14.5076 2.64526 14.2225 2.49287 13.9121 2.43113C13.6018 2.3694 13.2801 2.40108 12.9877 2.52218C12.6953 2.64328 12.4455 2.84836 12.2696 3.11148C12.0938 3.3746 12 3.68394 12 4.00039C12.0004 4.42462 12.1691 4.83135 12.4691 5.13132C12.769 5.4313 13.1758 5.59999 13.6 5.60039Z" fill="#213F7D"/>
<path d="M9.91922 7.20078H9.71172C9.17833 7.46149 8.59291 7.59823 7.99922 7.60078C7.38422 7.60078 6.80922 7.45078 6.28672 7.20078H6.07922C5.31546 7.20098 4.58303 7.50447 4.04297 8.04454C3.50291 8.5846 3.19942 9.31702 3.19922 10.0808V10.8008C3.19922 11.119 3.32565 11.4243 3.55069 11.6493C3.77573 11.8744 4.08096 12.0008 4.39922 12.0008H11.5992C11.9175 12.0008 12.2227 11.8744 12.4477 11.6493C12.6728 11.4243 12.7992 11.119 12.7992 10.8008V10.0808C12.799 9.31702 12.4955 8.5846 11.9555 8.04454C11.4154 7.50447 10.683 7.20098 9.91922 7.20078V7.20078ZM7.99922 6.40078C8.55301 6.40078 9.09436 6.23657 9.55482 5.9289C10.0153 5.62123 10.3742 5.18393 10.5861 4.6723C10.798 4.16066 10.8535 3.59768 10.7454 3.05453C10.6374 2.51138 10.3707 2.01247 9.97912 1.62088C9.58753 1.2293 9.08862 0.962622 8.54547 0.854584C8.00233 0.746545 7.43934 0.801994 6.92771 1.01392C6.41607 1.22585 5.97877 1.58473 5.6711 2.04519C5.36344 2.50564 5.19922 3.04699 5.19922 3.60078C5.19902 3.96854 5.27131 4.33273 5.41195 4.67253C5.5526 5.01233 5.75884 5.32108 6.01888 5.58112C6.27892 5.84116 6.58767 6.0474 6.92747 6.18805C7.26727 6.32869 7.63146 6.40098 7.99922 6.40078Z" fill="#213F7D"/>
</svg>
