<svg width="16" height="13" viewBox="0 0 16 13" fill="none" xmlns="http://www.w3.org/2000/svg">
<g clip-path="url(#clip0_1531_8529)">
<path opacity="0.4" d="M15.908 9.70595L15.263 9.33345C15.328 8.98143 15.328 8.62048 15.263 8.26845L15.908 7.89595C15.9441 7.87535 15.9719 7.84301 15.987 7.80432C16.002 7.76563 16.0032 7.72296 15.9905 7.68345C15.8243 7.14921 15.5408 6.65891 15.1606 6.24845C15.1326 6.21794 15.0951 6.19785 15.0542 6.19149C15.0133 6.18513 14.9715 6.19287 14.9356 6.21345L14.2905 6.58595C14.0181 6.35367 13.7055 6.1732 13.3681 6.05345V5.30845C13.368 5.26707 13.3539 5.22694 13.328 5.19467C13.3021 5.16241 13.2659 5.13993 13.2255 5.13095C12.6807 5.00843 12.1154 5.00843 11.5705 5.13095C11.5302 5.13993 11.494 5.16241 11.4681 5.19467C11.4422 5.22694 11.4281 5.26707 11.428 5.30845V6.05345C11.0906 6.1732 10.778 6.35367 10.5055 6.58595L9.86055 6.21345C9.82462 6.19296 9.7828 6.18527 9.74193 6.19162C9.70106 6.19798 9.66356 6.21802 9.63555 6.24845C9.25534 6.65891 8.97176 7.14921 8.80555 7.68345C8.79346 7.72299 8.79503 7.76545 8.80999 7.80399C8.82496 7.84253 8.85245 7.87492 8.88805 7.89595L9.53305 8.26845C9.46805 8.62048 9.46805 8.98143 9.53305 9.33345L8.88805 9.70595C8.85202 9.72655 8.82416 9.7589 8.80914 9.79758C8.79413 9.83627 8.79286 9.87894 8.80555 9.91845C8.97234 10.4524 9.25585 10.9426 9.63555 11.3535C9.66351 11.384 9.70102 11.4041 9.74191 11.4104C9.7828 11.4168 9.82464 11.409 9.86055 11.3885L10.5055 11.016C10.778 11.2482 11.0906 11.4287 11.428 11.5484V12.2935C11.4281 12.3348 11.4422 12.375 11.4681 12.4072C11.494 12.4395 11.5302 12.462 11.5705 12.4709C12.1154 12.5935 12.6807 12.5935 13.2255 12.4709C13.2659 12.462 13.3021 12.4395 13.328 12.4072C13.3539 12.375 13.368 12.3348 13.3681 12.2935V11.5484C13.7055 11.4287 14.0181 11.2482 14.2905 11.016L14.9356 11.3885C14.9715 11.4089 15.0133 11.4166 15.0542 11.4103C15.095 11.4039 15.1325 11.3839 15.1606 11.3535C15.5408 10.943 15.8243 10.4527 15.9905 9.91845C16.0026 9.87891 16.0011 9.83645 15.9861 9.79791C15.9711 9.75937 15.9436 9.72698 15.908 9.70595V9.70595ZM12.4005 10.0135C12.1607 10.0135 11.9263 9.94234 11.7269 9.80911C11.5275 9.67588 11.3721 9.48651 11.2803 9.26495C11.1886 9.0434 11.1646 8.79961 11.2113 8.5644C11.2581 8.3292 11.3736 8.11315 11.5432 7.94358C11.7128 7.77401 11.9288 7.65853 12.164 7.61175C12.3992 7.56496 12.643 7.58897 12.8646 7.68075C13.0861 7.77252 13.2755 7.92793 13.4087 8.12732C13.5419 8.32672 13.613 8.56114 13.613 8.80095C13.6127 9.12242 13.4849 9.43064 13.2576 9.65795C13.0302 9.88527 12.722 10.0131 12.4005 10.0135V10.0135Z" fill="#213F7D"/>
<path d="M10.63 12.2925V12.0625C10.5725 12.0325 10.515 11.9975 10.46 11.965L10.2625 12.08C10.0697 12.1919 9.84461 12.2348 9.62421 12.2016C9.40382 12.1684 9.20129 12.0612 9.05 11.8975C8.58975 11.3995 8.24641 10.805 8.045 10.1575C7.97798 9.94459 7.98582 9.71516 8.06723 9.50732C8.14863 9.29948 8.2987 9.12575 8.4925 9.015L8.69 8.9C8.6875 8.835 8.6875 8.77 8.69 8.705L8.4925 8.59C8.29857 8.47939 8.14838 8.30567 8.06696 8.09779C7.98554 7.88991 7.97778 7.6604 8.045 7.4475C8.0675 7.375 8.1 7.3025 8.125 7.23C8.03 7.2225 7.9375 7.2 7.84 7.2H7.4225C6.85106 7.46352 6.22927 7.59999 5.6 7.59999C4.97073 7.59999 4.34894 7.46352 3.7775 7.2H3.36C2.46893 7.2002 1.61442 7.55426 0.984341 8.18434C0.354262 8.81442 0.000198832 9.66894 0 10.56L0 11.6C0 11.9183 0.126428 12.2235 0.351472 12.4485C0.576516 12.6736 0.88174 12.8 1.2 12.8H10C10.243 12.7997 10.4801 12.7256 10.68 12.5875C10.6483 12.4923 10.6314 12.3928 10.63 12.2925V12.2925ZM5.6 6.4C6.2329 6.4 6.85159 6.21233 7.37782 5.8607C7.90406 5.50908 8.31421 5.00931 8.55641 4.42459C8.79862 3.83986 8.86199 3.19645 8.73851 2.57571C8.61504 1.95497 8.31027 1.38479 7.86274 0.93726C7.41521 0.489732 6.84503 0.184961 6.22429 0.0614885C5.60355 -0.0619842 4.96014 0.0013865 4.37541 0.243587C3.79069 0.485787 3.29092 0.895939 2.9393 1.42218C2.58768 1.94841 2.4 2.5671 2.4 3.2C2.4 4.04869 2.73714 4.86263 3.33726 5.46274C3.93737 6.06286 4.75131 6.4 5.6 6.4Z" fill="#213F7D"/>
</g>
<defs>
<clipPath id="clip0_1531_8529">
<rect width="16" height="12.8" fill="white"/>
</clipPath>
</defs>
</svg>
