<svg width="16" height="13" viewBox="0 0 16 13" fill="none" xmlns="http://www.w3.org/2000/svg">
<g clip-path="url(#clip0_1531_8417)">
<path opacity="0.4" d="M12.0007 6.39961C12.4754 6.39961 12.9394 6.25885 13.3341 5.99514C13.7288 5.73142 14.0364 5.35659 14.218 4.91805C14.3997 4.47951 14.4472 3.99695 14.3546 3.53139C14.262 3.06584 14.0334 2.6382 13.6978 2.30255C13.3621 1.96691 12.9345 1.73833 12.4689 1.64573C12.0034 1.55312 11.5208 1.60065 11.0823 1.7823C10.6437 1.96395 10.2689 2.27156 10.0052 2.66624C9.74146 3.06092 9.6007 3.52494 9.6007 3.99961C9.6007 4.63613 9.85356 5.24658 10.3037 5.69667C10.7537 6.14675 11.3642 6.39961 12.0007 6.39961ZM13.2007 7.19961H13.1057C12.7582 7.31961 12.3907 7.39961 12.0007 7.39961C11.6107 7.39961 11.2432 7.31961 10.8957 7.19961H10.8007C10.2907 7.19961 9.8207 7.34711 9.4082 7.58461C10.0182 8.24211 10.4007 9.11461 10.4007 10.0796V11.0396C10.4007 11.0946 10.3882 11.1471 10.3857 11.1996H14.8007C15.119 11.1996 15.4242 11.0732 15.6493 10.8481C15.8743 10.6231 16.0007 10.3179 16.0007 9.99961C16.0009 9.63185 15.9286 9.26766 15.788 8.92786C15.6473 8.58806 15.4411 8.27931 15.1811 8.01927C14.921 7.75923 14.6123 7.55299 14.2725 7.41235C13.9327 7.2717 13.5685 7.19941 13.2007 7.19961V7.19961Z" fill="#213F7D"/>
<path d="M4.8 6.40078C5.35379 6.40078 5.89514 6.23657 6.3556 5.9289C6.81605 5.62123 7.17494 5.18393 7.38686 4.6723C7.59879 4.16066 7.65424 3.59768 7.5462 3.05453C7.43816 2.51138 7.17149 2.01247 6.7799 1.62088C6.38831 1.2293 5.8894 0.962622 5.34625 0.854584C4.80311 0.746545 4.24012 0.801994 3.72849 1.01392C3.21685 1.22585 2.77955 1.58473 2.47189 2.04519C2.16422 2.50564 2 3.04699 2 3.60078C1.9998 3.96854 2.07209 4.33273 2.21274 4.67253C2.35338 5.01233 2.55962 5.32108 2.81966 5.58112C3.0797 5.84116 3.38845 6.0474 3.72825 6.18805C4.06805 6.32869 4.43224 6.40098 4.8 6.40078ZM6.72 7.20078H6.5125C5.97911 7.46149 5.39369 7.59823 4.8 7.60078C4.185 7.60078 3.61 7.45078 3.0875 7.20078H2.88C2.11624 7.20098 1.38381 7.50447 0.843752 8.04454C0.30369 8.5846 0.000198819 9.31702 0 10.0808L0 10.8008C0 11.119 0.126428 11.4243 0.351472 11.6493C0.576516 11.8744 0.88174 12.0008 1.2 12.0008H8.4C8.71826 12.0008 9.02348 11.8744 9.24853 11.6493C9.47357 11.4243 9.6 11.119 9.6 10.8008V10.0808C9.5998 9.31702 9.29631 8.5846 8.75625 8.04454C8.21619 7.50447 7.48376 7.20098 6.72 7.20078V7.20078Z" fill="#213F7D"/>
</g>
<defs>
<clipPath id="clip0_1531_8417">
<rect width="16" height="12.8" fill="white"/>
</clipPath>
</defs>
</svg>
