<svg width="16" height="13" viewBox="0 0 16 13" fill="none" xmlns="http://www.w3.org/2000/svg">
<g clip-path="url(#clip0_1531_8637)">
<path opacity="0.4" d="M15.9155 3.99016C15.9701 4.04657 16.0005 4.12215 16 4.20067C15.9995 4.2792 15.9683 4.35441 15.913 4.41016L12.3805 7.91516C12.3528 7.94263 12.3199 7.96437 12.2838 7.97911C12.2477 7.99386 12.209 8.00133 12.17 8.0011C12.1309 8.00087 12.0923 7.99294 12.0564 7.97776C12.0205 7.96258 11.9879 7.94046 11.9605 7.91266L9.91798 5.85516C9.8905 5.82745 9.86877 5.79459 9.85402 5.75847C9.83928 5.72234 9.8318 5.68366 9.83204 5.64464C9.83227 5.60562 9.8402 5.56704 9.85538 5.53109C9.87055 5.49514 9.89267 5.46254 9.92047 5.43516L10.623 4.73766C10.6507 4.71019 10.6835 4.68846 10.7197 4.67371C10.7558 4.65896 10.7945 4.65149 10.8335 4.65172C10.8725 4.65196 10.9111 4.65989 10.947 4.67506C10.983 4.69024 11.0156 4.71236 11.043 4.74016L12.1805 5.88516L14.8005 3.28516C14.8282 3.25769 14.861 3.23596 14.8972 3.22121C14.9333 3.20646 14.972 3.19899 15.011 3.19922C15.05 3.19946 15.0886 3.20739 15.1245 3.22256C15.1605 3.23774 15.1931 3.25986 15.2205 3.28766L15.9155 3.99016Z" fill="#213F7D"/>
<path d="M5.6 6.4C6.2329 6.4 6.85159 6.21233 7.37782 5.8607C7.90406 5.50908 8.31421 5.00931 8.55641 4.42459C8.79862 3.83986 8.86199 3.19645 8.73851 2.57571C8.61504 1.95497 8.31027 1.38479 7.86274 0.93726C7.41521 0.489732 6.84503 0.184961 6.22429 0.0614885C5.60355 -0.0619842 4.96014 0.0013865 4.37541 0.243587C3.79069 0.485787 3.29092 0.895939 2.9393 1.42218C2.58768 1.94841 2.4 2.5671 2.4 3.2C2.4 4.04869 2.73714 4.86263 3.33726 5.46274C3.93737 6.06286 4.75131 6.4 5.6 6.4ZM7.84 7.2H7.4225C6.85106 7.46352 6.22927 7.59999 5.6 7.59999C4.97073 7.59999 4.34894 7.46352 3.7775 7.2H3.36C2.46893 7.2002 1.61442 7.55426 0.984341 8.18434C0.354262 8.81442 0.000198832 9.66894 0 10.56L0 11.6C0 11.9183 0.126428 12.2235 0.351472 12.4485C0.576516 12.6736 0.88174 12.8 1.2 12.8H10C10.3183 12.8 10.6235 12.6736 10.8485 12.4485C11.0736 12.2235 11.2 11.9183 11.2 11.6V10.56C11.1998 9.66894 10.8457 8.81442 10.2157 8.18434C9.58558 7.55426 8.73107 7.2002 7.84 7.2Z" fill="#213F7D"/>
</g>
<defs>
<clipPath id="clip0_1531_8637">
<rect width="16" height="12.8" fill="white"/>
</clipPath>
</defs>
</svg>
